<?xml version="1.0" standalone="no"?>
<!DOCTYPE svg PUBLIC "-//W3C//DTD SVG 20010904//EN"
 "http://www.w3.org/TR/2001/REC-SVG-20010904/DTD/svg10.dtd">
<svg version="1.0" xmlns="http://www.w3.org/2000/svg"
 width="160.000000pt" height="160.000000pt" viewBox="0 0 160.000000 160.000000"
 preserveAspectRatio="xMidYMid meet">
<metadata>
Created by potrace 1.14, written by Peter Selinger 2001-2017
</metadata>
<g transform="translate(0.000000,160.000000) scale(0.100000,-0.100000)"
fill="#000000" stroke="none">
<path d="M998 1476 c-28 -21 -33 -61 -9 -85 25 -25 49 -27 78 -6 18 13 24 13
51 0 39 -20 77 -6 86 30 12 48 -40 85 -82 58 -18 -11 -31 -12 -50 -5 -51 19
-58 20 -74 8z"/>
<path d="M237 1468 c-21 -16 -24 -53 -8 -92 8 -20 9 -32 1 -40 -14 -14 -13
-69 2 -84 9 -9 8 -21 -1 -50 -11 -33 -11 -43 2 -67 13 -25 12 -31 -2 -56 -13
-23 -14 -33 -3 -63 11 -29 11 -40 -1 -63 -27 -58 5 -101 67 -89 17 4 38 6 46
5 46 -3 151 -8 190 -8 25 0 56 0 70 -1 61 -2 93 -1 97 4 15 15 19 77 7 95 -13
18 -24 19 -177 17 -89 -2 -169 -6 -177 -10 -31 -12 -43 8 -30 52 11 34 10 43
-3 62 -14 20 -14 26 1 57 15 32 15 37 1 62 -14 24 -14 32 -3 52 16 30 18 64 3
91 -8 14 -8 23 0 31 19 19 13 85 -8 97 -26 14 -54 13 -74 -2z"/>
<path d="M450 1450 c0 -5 7 -7 15 -4 8 4 15 2 15 -4 0 -5 -7 -13 -16 -16 -11
-4 -14 -13 -11 -28 4 -12 1 -29 -6 -36 -7 -8 -16 -29 -22 -45 -13 -40 -39 -50
-29 -12 6 24 4 26 -16 23 -13 -1 -25 -9 -28 -16 -2 -8 2 -10 15 -5 17 6 17 6
1 -14 -10 -11 -18 -24 -18 -30 0 -16 35 -43 57 -43 11 0 28 -11 37 -25 9 -14
20 -24 24 -24 32 5 39 -25 11 -53 -9 -9 -16 -36 -18 -66 l-2 -50 82 -4 c57 -2
83 1 86 9 7 17 -26 113 -39 113 -6 0 -8 7 -4 15 3 8 0 15 -7 15 -7 0 2 9 19
20 28 18 31 24 28 63 -2 24 -8 56 -14 71 -7 21 -7 32 1 42 6 8 8 21 4 31 -5
10 -7 24 -6 31 1 6 -7 12 -17 12 -12 0 -19 -7 -18 -17 1 -23 -11 -26 -51 -12
-28 9 -31 13 -23 34 7 18 5 25 -6 29 -23 9 -44 7 -44 -4z"/>
<path d="M860 1345 c-7 -8 -12 -27 -11 -42 2 -46 2 -71 -1 -246 -3 -182 -3
-185 51 -193 44 -7 69 22 64 74 -2 22 0 43 6 46 7 5 196 10 248 7 7 -1 11 -19
10 -50 -1 -27 4 -55 11 -64 16 -19 81 -15 93 5 5 7 9 42 9 78 0 73 0 109 1
160 0 19 0 49 -1 65 -1 17 -2 58 -3 93 -2 67 -12 82 -57 82 -50 0 -55 -11 -56
-130 -1 -61 -4 -113 -7 -117 -8 -7 -238 -5 -246 3 -6 6 -11 62 -14 162 -1 43
-7 66 -17 72 -23 15 -66 12 -80 -5z"/>
<path d="M227 710 c-11 -16 -13 -249 -6 -485 1 -11 0 -34 -2 -52 -3 -48 16
-66 65 -59 54 8 65 8 103 0 21 -4 39 -1 54 9 20 14 25 14 52 1 57 -30 113 30
72 76 -21 24 -37 25 -73 6 -24 -12 -30 -12 -47 0 -21 16 -63 18 -84 5 -25 -16
-43 -1 -35 28 4 14 8 46 8 71 l1 45 114 1 c97 1 116 4 127 19 13 17 12 81 -1
94 -4 3 -55 6 -114 7 -59 0 -112 3 -117 6 -5 4 -9 32 -9 65 l0 58 112 1 c133
1 148 8 140 68 -3 21 -11 42 -17 46 -6 4 -83 7 -171 7 -141 0 -161 -2 -172
-17z"/>
<path d="M861 720 c-17 -10 -22 -74 -8 -94 11 -15 35 -18 187 -19 l175 -2 2
-48 c1 -27 7 -55 14 -63 15 -18 83 -18 99 1 15 18 16 201 0 219 -8 11 -58 14
-235 14 -123 -1 -228 -4 -234 -8z"/>
<path d="M613 600 c-19 -8 -23 -17 -23 -53 0 -24 5 -48 12 -55 18 -18 83 -15
99 4 13 16 14 83 1 96 -12 12 -66 17 -89 8z"/>
<path d="M983 462 c-15 -15 -17 -70 -4 -91 5 -8 25 -13 52 -12 84 1 94 1 121
-3 44 -5 66 17 63 64 -2 23 -6 44 -10 48 -13 13 -208 8 -222 -6z"/>
<path d="M882 352 c-27 -4 -40 -28 -36 -67 2 -16 3 -46 3 -65 -1 -19 -1 -48
-1 -63 -1 -38 13 -49 58 -47 22 1 65 2 97 1 33 -1 64 2 70 7 13 9 19 9 60 -2
17 -5 39 -4 57 4 22 9 37 9 61 1 26 -9 37 -8 56 4 25 17 32 62 11 83 -15 15
-70 16 -85 1 -8 -8 -19 -7 -39 4 -24 13 -35 13 -66 3 -21 -8 -42 -9 -51 -5
-24 14 -60 17 -90 8 l-29 -8 5 59 c4 39 1 62 -6 68 -16 12 -47 18 -75 14z"/>
<path d="M606 334 c-22 -21 -20 -67 2 -87 41 -37 102 -11 102 43 0 36 -24 60
-60 60 -16 0 -36 -7 -44 -16z"/>
</g>
</svg>
